<svg xmlns="http://www.w3.org/2000/svg" viewBox="0 0 29.66 29.8">
  <path d="M2.27,6.9C4.92,2.76,9.55,0,14.83,0c.05,0,.09,0,.14,0,.02,0,.04,0,.06,0,.06,0,.11.02.17.02,5.12.13,9.6,2.84,12.18,6.88h-3.77c-1.08-1.18-2.38-2.14-3.85-2.81.41.84.76,1.79,1.07,2.81h-3.14c-.89-2.49-2.02-3.81-2.61-3.89-.03,0-.06,0-.09,0-.58.05-1.73,1.37-2.63,3.89h-3.14c.33-1.12.73-2.15,1.18-3.04-1.68.68-3.17,1.72-4.37,3.04h-3.77ZM23.61,22.9c-1.08,1.18-2.38,2.14-3.85,2.81.41-.84.76-1.79,1.07-2.81h-3.14c-.89,2.49-2.02,3.81-2.61,3.89-.03,0-.06,0-.09,0-.58-.05-1.73-1.37-2.63-3.89h-3.14c.33,1.12.73,2.15,1.18,3.04-1.68-.68-3.17-1.72-4.37-3.04h-3.77c2.65,4.14,7.27,6.9,12.56,6.9.05,0,.09,0,.14,0,.02,0,.04,0,.06,0,.06,0,.11-.02.17-.02,5.12-.13,9.6-2.84,12.18-6.88h-3.77ZM1.31,18.62h3.08l.61-4.93h.13l.58,4.93h2.94l1.24-7.56h-2.38l-.26,4.56h-.17l-.35-3.33c-.17-1.14-.46-1.27-1.68-1.27-.47,0-1.01.05-1.46.12l-.41,4.49h-.17l-.26-3.31c-.1-1.16-.36-1.31-1.27-1.31-.49,0-1.1.08-1.48.18l1.31,7.44ZM11.2,18.62h3.08l.61-4.93h.13l.58,4.93h2.94l1.24-7.56h-2.38l-.26,4.56h-.17l-.35-3.33c-.17-1.14-.46-1.27-1.68-1.27-.47,0-1.01.05-1.46.12l-.41,4.49h-.17l-.26-3.31c-.1-1.16-.36-1.31-1.27-1.31-.49,0-1.1.08-1.48.18l1.31,7.44ZM21.08,18.62h3.08l.61-4.93h.13l.58,4.93h2.94l1.24-7.56h-2.38l-.26,4.56h-.17l-.35-3.33c-.17-1.14-.46-1.27-1.68-1.27-.47,0-1.01.05-1.46.12l-.41,4.49h-.17l-.26-3.31c-.1-1.16-.36-1.31-1.27-1.31-.49,0-1.1.08-1.48.18l1.31,7.44Z"/>
</svg>