<svg xmlns="http://www.w3.org/2000/svg" viewBox="0 0 32 32"><path d="M27.5,4.34h-6.85c.01-.1.03-.19.03-.29v-.86c0-1.15-.94-2.09-2.09-2.09h-5.18c-1.15,0-2.09.94-2.09,2.09v.86c0,.1.02.19.03.29h-6.85c-1.05,0-1.9.85-1.9,1.9v1.23c0,1.05.85,1.9,1.9,1.9h.67c-.05.18-.08.37-.08.57v18.58c0,1.31,1.06,2.37,2.37,2.37h17.06c1.31,0,2.37-1.06,2.37-2.37V9.95c0-.2-.03-.39-.08-.57h.67c1.05,0,1.9-.85,1.9-1.9v-1.23c0-1.05-.85-1.9-1.9-1.9ZM13.12,4.05v-.86c0-.16.13-.29.29-.29h5.18c.16,0,.29.13.29.29v.86c0,.16-.13.29-.29.29h-5.18c-.16,0-.29-.13-.29-.29ZM25.1,9.95v18.58c0,.31-.26.57-.57.57H7.47c-.31,0-.57-.26-.57-.57V9.95c0-.31.25-.57.57-.57h17.06c.31,0,.57.26.57.57ZM27.6,7.48c0,.06-.05.1-.1.1H4.5c-.06,0-.1-.05-.1-.1v-1.23c0-.06.05-.1.1-.1h22.99c.06,0,.1.05.1.1v1.23ZM9.5,26.8v-15.61c0-.38.31-.7.7-.7h.61c.38,0,.7.31.7.7v15.61c0,.38-.31.7-.7.7h-.61c-.38,0-.7-.31-.7-.7ZM15,26.8v-15.61c0-.38.31-.7.7-.7h.61c.38,0,.7.31.7.7v15.61c0,.38-.31.7-.7.7h-.61c-.38,0-.7-.31-.7-.7ZM20.5,26.8v-15.61c0-.38.31-.7.7-.7h.61c.38,0,.7.31.7.7v15.61c0,.38-.31.7-.7.7h-.61c-.38,0-.7-.31-.7-.7Z"/></svg>