<svg xmlns="http://www.w3.org/2000/svg" viewBox="0 0 32 32"><path d="M26.69,16.07v11.7c0,1.39-1.18,2.53-2.63,2.53H4.49c-1.45,0-2.63-1.13-2.63-2.53V6.7c0-1.39,1.18-2.52,2.63-2.52h12.08c.5,0,.9.4.9.9s-.4.9-.9.9H4.49c-.46,0-.83.33-.83.72v21.08c0,.4.37.72.83.72h19.56c.46,0,.83-.33.83-.72v-11.7c0-.5.4-.9.9-.9s.9.4.9.9ZM29.18,9.2l-14.16,14.16c-1.05,1.04-5.47,1.56-7.32,1.74-.03,0-.06,0-.08,0-.24,0-.47-.09-.64-.26-.19-.19-.28-.45-.26-.72.17-1.85.69-6.28,1.74-7.32L22.62,2.63c1.24-1.24,3.39-1.24,4.63,0l1.93,1.93c1.28,1.28,1.28,3.36,0,4.63ZM25.27,10.56l-4.02-4.02-11.52,11.52c-.37.43-.82,2.81-1.1,5.12,2.31-.28,4.69-.74,5.12-1.11l11.51-11.51ZM27.91,5.83l-1.93-1.93c-.28-.28-.65-.43-1.04-.43s-.77.15-1.04.43l-1.36,1.36,4.02,4.02,1.36-1.36c.58-.58.58-1.51,0-2.09ZM22.19,9.81l-.19-.19c-.35-.35-.92-.35-1.27,0l-2.44,2.44c-.17.17-.26.4-.26.64,0,.24.1.47.26.64l.19.19c.18.18.41.26.64.26s.46-.09.64-.26l2.44-2.44c.17-.17.26-.4.26-.64,0-.24-.1-.47-.26-.64Z"/></svg>