<svg xmlns="http://www.w3.org/2000/svg" viewBox="0 0 32 32"><path d="M25,14.25h-2.57c-3.02,0-4.68-1.66-4.68-4.68v-2.57c0-3.02,1.66-4.68,4.68-4.68h2.57c3.02,0,4.68,1.66,4.68,4.68v2.57c0,3.02-1.66,4.68-4.68,4.68ZM22.43,3.97c-2.13,0-3.03.91-3.03,3.03v2.57c0,2.13.91,3.03,3.03,3.03h2.57c2.13,0,3.03-.91,3.03-3.03v-2.57c0-2.13-.91-3.03-3.03-3.03h-2.57ZM9.57,29.68h-2.57c-3.02,0-4.68-1.66-4.68-4.68v-2.57c0-3.02,1.66-4.68,4.68-4.68h2.57c3.02,0,4.68,1.66,4.68,4.68v2.57c0,3.02-1.66,4.68-4.68,4.68ZM7,19.4c-2.13,0-3.03.91-3.03,3.03v2.57c0,2.13.91,3.03,3.03,3.03h2.57c2.13,0,3.03-.91,3.03-3.03v-2.57c0-2.13-.91-3.03-3.03-3.03h-2.57ZM8.28,14.25c-3.29,0-5.97-2.68-5.97-5.97s2.68-5.97,5.97-5.97,5.97,2.68,5.97,5.97-2.68,5.97-5.97,5.97ZM8.28,3.97c-2.38,0-4.32,1.94-4.32,4.32s1.94,4.32,4.32,4.32,4.32-1.94,4.32-4.32-1.94-4.32-4.32-4.32ZM23.72,29.68c-3.29,0-5.97-2.68-5.97-5.97s2.68-5.97,5.97-5.97,5.97,2.68,5.97,5.97-2.68,5.97-5.97,5.97ZM23.72,19.4c-2.38,0-4.32,1.94-4.32,4.32s1.94,4.32,4.32,4.32,4.32-1.94,4.32-4.32-1.94-4.32-4.32-4.32Z"/></svg>