<svg xmlns="http://www.w3.org/2000/svg" viewBox="0 0 32 32"><path d="M31.51,12.27c-.18-.53-.5-1-.93-1.36-.43-.36-.96-.58-1.49-.65l-6.5-1.04c-.19-.03-.38-.1-.53-.22-.15-.11-.28-.26-.37-.43l-2.96-5.78c-.24-.51-.62-.94-1.1-1.24-.48-.31-1.04-.47-1.61-.47-.58-.02-1.13.16-1.61.46-.49.3-.87.74-1.1,1.23l-2.97,5.8c-.08.17-.21.32-.36.43-.16.11-.34.19-.54.22l-6.48,1.03c-.56.07-1.08.3-1.51.66-.43.36-.76.83-.94,1.36-.18.53-.2,1.1-.06,1.65.14.54.42,1.04.82,1.41l4.68,4.63c.13.13.24.29.29.47.06.17.07.36.04.54l-1.05,6.44c-.1.55-.05,1.12.17,1.65.21.52.57.97,1.03,1.3.46.33,1,.52,1.56.56.57.03,1.12-.08,1.6-.34l5.86-2.96c.34-.18.78-.18,1.13,0l5.81,2.96c.44.23.93.36,1.43.36.07,0,.13,0,.2,0,.57-.04,1.11-.23,1.56-.56.46-.33.82-.78,1.03-1.3.21-.53.27-1.09.17-1.62l-1.05-6.46c-.03-.18-.01-.37.04-.54.06-.18.16-.34.3-.47l4.67-4.61c.41-.39.7-.88.83-1.42.14-.54.12-1.11-.06-1.65ZM29.82,13.48c-.05.21-.17.4-.34.57l-4.67,4.62c-.34.33-.6.74-.75,1.19-.15.45-.19.93-.11,1.4l1.06,6.48c.04.21.02.43-.06.64-.08.2-.22.38-.41.51-.18.13-.4.21-.63.22-.23.02-.46-.03-.67-.15l-5.82-2.97c-.43-.22-.91-.34-1.39-.34,0,0-.01,0-.02,0V2.88h0c.23,0,.46.07.65.19.19.12.34.29.44.5l2.98,5.82c.21.43.53.8.92,1.08.39.28.84.46,1.31.53l6.52,1.04c.23.03.44.12.61.26.17.14.3.33.37.54.07.21.08.43.02.64Z"/></svg>