<svg xmlns="http://www.w3.org/2000/svg" viewBox="0 0 32 32"><path d="M13.18,14.91l.26,1.2h-1.28l.29-1.2c.04-.14.08-.31.11-.5.04-.19.07-.36.11-.52.04-.19.08-.38.12-.58h.02c.04.19.08.38.12.58.04.16.08.33.12.52.04.19.08.35.12.5ZM22.87,13.74c-.17-.19-.38-.33-.62-.44-.24-.1-.5-.16-.78-.16s-.55.05-.79.16c-.24.11-.44.26-.61.44-.17.19-.3.41-.4.67-.1.26-.14.54-.14.84s.05.6.15.87c.1.27.24.5.42.71.18.2.4.36.66.48s.55.17.87.17c.16,0,.29-.02.4-.06l-.19-.16c-.16-.14-.27-.3-.32-.5s0-.39.17-.58l.37-.41c.16-.18.32-.28.49-.28.16,0,.34.07.52.23l.3.25c.02-.11.03-.24.04-.37.01-.14.02-.24.02-.32,0-.32-.05-.61-.15-.88-.1-.26-.24-.49-.41-.68ZM31.25,8.04v10.6c0,1.54-1.18,2.8-2.69,2.95-.37.9-1.26,1.53-2.29,1.53H9.98l-1.98,3.42c-.31.53-1.07.53-1.37,0l-1.98-3.42h-1.42c-1.37,0-2.48-1.11-2.48-2.48v-10.6c0-1.03.63-1.92,1.53-2.29.15-1.51,1.41-2.69,2.95-2.69h23.04c1.64,0,2.98,1.34,2.98,2.98ZM8.65,15.27c0-.53-.26-.79-.79-.79h-1.67v-1.33h2.22c.52,0,.78-.26.78-.78v-.6c0-.52-.26-.78-.78-.78h-3.96c-.53,0-.79.26-.79.78v7.07c0,.52.26.78.79.78h.96c.52,0,.78-.26.78-.78v-2.2h1.67c.53,0,.79-.26.79-.78v-.59ZM16.69,18.71l-2.34-7.09c-.14-.42-.44-.64-.89-.64h-1.31c-.45,0-.74.21-.89.64l-2.34,7.09c-.1.27-.08.49.04.65s.32.25.6.25h.97c.46,0,.74-.22.86-.66l.18-.84h2.44l.18.84c.14.44.44.66.89.66h.97c.28,0,.48-.08.6-.25s.13-.38.04-.65ZM26.03,15.2c0-.6-.11-1.17-.33-1.7-.22-.53-.53-.99-.93-1.39-.4-.39-.88-.7-1.44-.93-.56-.23-1.18-.34-1.86-.34s-1.3.11-1.86.34c-.56.23-1.04.54-1.43.94-.4.4-.7.86-.92,1.4-.22.54-.33,1.12-.33,1.75s.11,1.21.33,1.76c.22.55.53,1.02.93,1.43.4.4.88.72,1.44.95.56.23,1.18.35,1.86.35.46,0,.88-.05,1.27-.16.39-.1.76-.26,1.1-.46l.31.26c.16.14.32.21.49.22s.35-.1.54-.31l.37-.42c.18-.19.25-.38.23-.57-.02-.19-.13-.36-.34-.52l-.2-.16c.22-.36.41-.73.55-1.12.14-.38.22-.83.22-1.33ZM30.25,8.04c0-1.09-.89-1.98-1.98-1.98H5.23c-.92,0-1.7.64-1.91,1.5h22.96c1.37,0,2.48,1.11,2.48,2.48v10.51c.86-.22,1.5-.99,1.5-1.91v-10.6Z"/></svg>