<svg xmlns="http://www.w3.org/2000/svg" viewBox="0 0 32 32"><path d="M25.86,9.26c-.17-1.66-1.55-2.92-3.22-2.92h-1.41c-.46-2.47-2.62-4.34-5.22-4.34s-4.76,1.87-5.22,4.34h-1.41c-1.67,0-3.06,1.25-3.23,2.92l-1.72,17.18c-.09.91.21,1.82.82,2.5.61.68,1.49,1.07,2.4,1.07h16.7c.91,0,1.79-.39,2.4-1.07.61-.68.91-1.59.82-2.5l-1.72-17.18ZM16,3.95c1.51,0,2.78,1.01,3.2,2.39h-6.4c.42-1.38,1.69-2.39,3.2-2.39ZM25.31,27.62c-.25.27-.59.42-.95.42H7.65c-.37,0-.71-.15-.95-.42-.25-.27-.36-.63-.33-.99l1.72-17.18c.07-.66.62-1.16,1.28-1.16h13.26c.66,0,1.22.5,1.28,1.16l1.72,17.18c.04.37-.08.72-.33.99ZM19.36,10.57h1.95c0,2.93-2.39,5.32-5.32,5.32s-5.32-2.39-5.32-5.32h1.95c0,1.85,1.51,3.36,3.36,3.36s3.36-1.51,3.36-3.36Z"/></svg>