<svg xmlns="http://www.w3.org/2000/svg" viewBox="0 0 32 32">
  <path d="M30.55,16.28s-.01.04-.02.05c0,0,0,0,0,0l-2.34,3.51c-.12.17-.31.27-.5.27-.11,0-.23-.03-.33-.1-.28-.18-.35-.56-.17-.83l1.72-2.57h-10.57c-.33,0-.6-.27-.6-.6s.27-.6.6-.6h10.57l-1.72-2.57c-.18-.28-.11-.65.17-.83.28-.18.65-.11.83.17l2.34,3.51s0,0,0,0c.01.02.01.04.02.05.02.03.03.07.04.1,0,.02.02.04.02.06,0,.02,0,.04,0,.06,0,.02.01.03.01.05s0,.04-.01.05c0,.02,0,.04,0,.06,0,.02-.02.04-.02.06-.01.04-.02.07-.04.1ZM24.78,18.92v9.3c0,.68-.55,1.23-1.23,1.23h-6.38v.38c0,.71-.64,1.26-1.34,1.15l-12.87-1.98c-.57-.09-.99-.58-.99-1.15V4.14c0-.57.42-1.06.99-1.15l12.87-1.98c.7-.11,1.34.44,1.34,1.15v.38h6.38c.68,0,1.23.55,1.23,1.23v9.3c0,.33-.27.6-.6.6s-.6-.27-.6-.6V3.78h-6.41s0,24.46,0,24.46h6.38s.03-9.32.03-9.32c0-.33.27-.6.6-.6s.6.27.6.6ZM14.83,16.95c.65,0,1.17-.52,1.17-1.17s-.52-1.17-1.17-1.17-1.17.52-1.17,1.17.52,1.17,1.17,1.17Z"/>
</svg>