<svg xmlns="http://www.w3.org/2000/svg" viewBox="0 0 32 32"><path d="M10,13.69c0-2.03-1.65-3.69-3.69-3.69s-3.69,1.65-3.69,3.69,1.65,3.69,3.69,3.69,3.69-1.65,3.69-3.69ZM9.14,13.69c0,1.56-1.27,2.83-2.83,2.83s-2.83-1.27-2.83-2.83,1.27-2.83,2.83-2.83,2.83,1.27,2.83,2.83ZM3.2,17.87l.23-.17.24.15c1.48.94,3.44.99,4.98.16-.21.37-.4.76-.56,1.17-1.52.48-3.23.34-4.63-.45-1.32,1.04-2.1,2.72-2.1,4.54,0,.06,0,.12,0,.18,1.43,1.1,3.13,1.68,4.94,1.68.92,0,1.81-.15,2.65-.45.31.19.64.37.97.54-1.13.5-2.37.77-3.62.77-2.04,0-4.04-.71-5.63-1.99l-.15-.12v-.19c-.02-.14-.02-.28-.02-.42,0-2.2,1-4.22,2.68-5.41ZM25.69,17.37c2.03,0,3.69-1.65,3.69-3.69s-1.65-3.69-3.69-3.69-3.69,1.65-3.69,3.69,1.65,3.69,3.69,3.69ZM25.69,10.86c1.56,0,2.83,1.27,2.83,2.83s-1.27,2.83-2.83,2.83-2.83-1.27-2.83-2.83,1.27-2.83,2.83-2.83ZM16,15c2.76,0,5-2.24,5-5s-2.24-5-5-5-5,2.24-5,5,2.24,5,5,5ZM16,6.17c2.11,0,3.83,1.72,3.83,3.83s-1.72,3.84-3.83,3.84-3.83-1.72-3.83-3.84,1.72-3.83,3.83-3.83ZM31.48,23.28c0,.14,0,.28-.01.42v.19s-.16.12-.16.12c-1.59,1.28-3.59,1.99-5.63,1.99-1.25,0-2.49-.27-3.62-.77.33-.16.65-.34.97-.54.84.29,1.73.45,2.65.45,1.81,0,3.51-.58,4.94-1.68,0-.06,0-.12,0-.18,0-1.82-.78-3.5-2.1-4.54-1.4.79-3.11.93-4.63.45-.16-.4-.35-.79-.56-1.17,1.54.83,3.5.78,4.98-.16l.24-.15.23.17c1.68,1.19,2.68,3.21,2.68,5.41ZM23.42,19.19c-.16-.4-.35-.79-.56-1.17-.63-1.11-1.47-2.08-2.5-2.81l-.33-.23-.34.21c-2.21,1.4-5.17,1.4-7.38,0l-.34-.21-.33.23c-2.34,1.66-3.74,4.48-3.74,7.55,0,.2,0,.39.02.59l.02.26.21.17c2.22,1.79,5.01,2.77,7.86,2.77,1.94,0,3.86-.47,5.58-1.33.33-.16.65-.34.97-.54.45-.28.9-.58,1.31-.91l.21-.17.02-.26c.01-.2.02-.39.02-.59,0-1.26-.24-2.46-.68-3.57ZM22.9,23.02c-.53.41-1.09.76-1.67,1.07-.31.16-.62.31-.95.44-1.34.55-2.78.84-4.28.84-2.53,0-4.9-.81-6.9-2.34,0-.08,0-.17,0-.25,0-2.55,1.09-4.89,2.93-6.34,2.42,1.36,5.52,1.36,7.94,0,.65.51,1.19,1.14,1.64,1.84.16.25.3.5.43.77.55,1.13.86,2.4.86,3.74,0,.08,0,.17,0,.25Z"/></svg>