<svg xmlns="http://www.w3.org/2000/svg" viewBox="0 0 32 32"><path d="M28.31,1.11c-.15-.29-.46-.48-.79-.48H4.49c-.34,0-.65.19-.8.49-.15.3-.12.67.08.94l9.04,12.26v12.86c0,.31.16.6.42.76l5.26,3.29c.15.09.31.14.48.14.15,0,.3-.04.44-.11.29-.16.46-.46.46-.79V14.3L28.26,2.03c.19-.27.21-.63.05-.93ZM18.22,13.52s-.02.05-.03.08c-.03.05-.05.11-.07.17-.02.06-.03.12-.04.18,0,.03-.02.05-.02.08v14.83l-3.47-2.17v-12.66s-.02-.06-.02-.1c0-.06-.02-.12-.04-.18-.02-.06-.05-.11-.08-.16-.02-.03-.02-.06-.04-.09L6.26,2.42h19.55l-7.59,11.09Z"/></svg>