<svg xmlns="http://www.w3.org/2000/svg" viewBox="0 0 32 32"><path d="M23.82,30.92c-.5,0-.99-.12-1.43-.36l-5.81-2.96c-.36-.18-.79-.18-1.13,0l-5.86,2.96c-.48.26-1.04.38-1.6.34-.56-.04-1.1-.23-1.56-.56-.46-.33-.82-.78-1.03-1.3-.21-.52-.27-1.09-.17-1.65l1.05-6.44c.03-.18.01-.37-.04-.54-.06-.17-.16-.34-.29-.47L1.25,15.32c-.4-.38-.68-.87-.82-1.41-.14-.54-.12-1.11.06-1.65.18-.53.5-1,.94-1.36.43-.36.96-.58,1.51-.66l6.48-1.03c.2-.03.38-.1.54-.22.15-.11.28-.26.36-.43l2.97-5.8c.23-.49.62-.92,1.1-1.23.48-.3,1.03-.48,1.61-.46.57,0,1.13.16,1.61.47.48.3.86.73,1.1,1.24l2.96,5.78c.09.17.21.32.37.43.16.11.34.19.53.22l6.5,1.04c.54.07,1.06.3,1.49.65.43.36.76.83.93,1.36.18.53.2,1.1.06,1.65-.14.54-.42,1.04-.83,1.42l-4.67,4.61c-.14.14-.24.3-.3.47-.06.17-.07.36-.04.54l1.05,6.46c.1.53.04,1.1-.17,1.62-.21.52-.57.97-1.03,1.3-.46.33-1,.52-1.56.56-.07,0-.13,0-.2,0Z"/></svg>