<svg xmlns="http://www.w3.org/2000/svg" viewBox="0 0 32 32"><path d="M27.21,14.89l3.22-8.59c.12-.33.08-.7-.12-.99-.2-.29-.53-.46-.88-.46H8.39l-.51-1.43s-.01-.02-.02-.03c-.03-.08-.08-.14-.12-.2-.03-.05-.06-.1-.1-.15-.05-.06-.12-.09-.19-.14-.05-.03-.09-.07-.14-.1-.07-.03-.14-.04-.21-.06-.06-.01-.13-.04-.19-.04-.01,0-.02,0-.04,0h-3.22c-.29,0-.56.11-.76.31-.14.14-1.39,1.43-1.39,2.91,0,.59.48,1.07,1.07,1.07s1.07-.48,1.07-1.07c0-.31.24-.74.49-1.07h1.97l6.19,17.54c.15.43.56.72,1.01.72h13.96c.59,0,1.07-.48,1.07-1.07s-.48-1.07-1.07-1.07h-13.2l-.76-2.15h9.67c2.84,0,4.11-3.55,4.23-3.92ZM9.15,6.99h18.73l-2.69,7.18c-.18.53-1.06,2.49-2.2,2.49h-10.42l-3.41-9.67ZM14.5,29.3c-1.6,0-2.9-1.3-2.9-2.9s1.3-2.9,2.9-2.9,2.9,1.3,2.9,2.9-1.3,2.9-2.9,2.9ZM14.5,25.3c-.61,0-1.1.49-1.1,1.1s.49,1.1,1.1,1.1,1.1-.49,1.1-1.1-.49-1.1-1.1-1.1ZM25.5,29.3c-1.6,0-2.9-1.3-2.9-2.9s1.3-2.9,2.9-2.9,2.9,1.3,2.9,2.9-1.3,2.9-2.9,2.9ZM25.5,25.3c-.61,0-1.1.49-1.1,1.1s.49,1.1,1.1,1.1,1.1-.49,1.1-1.1-.49-1.1-1.1-1.1Z"/></svg>