<svg xmlns="http://www.w3.org/2000/svg" viewBox="0 0 32 32">
  <path d="M16,30.8c-8.16,0-14.8-6.64-14.8-14.8S7.84,1.2,16,1.2s14.8,6.64,14.8,14.8-6.64,14.8-14.8,14.8ZM16,2.8c-7.28,0-13.2,5.92-13.2,13.2s5.92,13.2,13.2,13.2,13.2-5.92,13.2-13.2S23.28,2.8,16,2.8ZM16,26.56c-2.85,0-5.64-.99-7.86-2.77l-.21-.17-.02-.26c-.01-.2-.02-.39-.02-.59,0-3.07,1.4-5.9,3.74-7.55l.33-.23.34.21c2.21,1.4,5.17,1.4,7.38,0l.34-.21.33.23c2.34,1.66,3.74,4.48,3.74,7.55,0,.2,0,.39-.02.59l-.02.26-.21.17c-2.22,1.79-5.01,2.77-7.86,2.77ZM9.1,23.02c1.99,1.53,4.37,2.34,6.9,2.34s4.9-.81,6.9-2.34c0-.08,0-.17,0-.25,0-2.55-1.09-4.89-2.93-6.34-2.42,1.36-5.52,1.36-7.94,0-1.84,1.46-2.93,3.8-2.93,6.34,0,.08,0,.17,0,.25ZM16,15.74c-2.84,0-5.15-2.31-5.15-5.15s2.31-5.15,5.15-5.15,5.15,2.31,5.15,5.15-2.31,5.15-5.15,5.15ZM16,6.64c-2.18,0-3.95,1.77-3.95,3.95s1.77,3.95,3.95,3.95,3.95-1.77,3.95-3.95-1.77-3.95-3.95-3.95Z"/>
</svg>