<svg xmlns="http://www.w3.org/2000/svg" viewBox="0 0 32 32">
  <path d="M14.03,23.88c-.47.71-.64,1.08-1.18,1.54s-1.15.83-1.86,1.1c-.71.27-1.46.41-2.27.41-1.07,0-2.06-.24-2.99-.71-.92-.48-1.73-1.13-2.42-1.95-.69-.82-1.24-1.77-1.64-2.86-.41-1.08-.61-2.24-.61-3.48,0-1.96.37-3.76,1.1-5.41.74-1.64,1.72-3.08,2.94-4.31,1.23-1.23,2.66-2.21,4.31-2.94,1.64-.73,3.38-1.16,5.19-1.28v1.99s-11.46-.3-9.22,12.51c5.41-6.4,11.18.15,8.64,5.38ZM30.38,23.88c-.47.71-.64,1.08-1.18,1.54s-1.15.83-1.86,1.1c-.71.27-1.46.41-2.27.41-1.07,0-2.06-.24-2.99-.71-.92-.48-1.73-1.13-2.42-1.95-.69-.82-1.24-1.77-1.64-2.86-.41-1.08-.61-2.24-.61-3.48,0-1.96.37-3.76,1.1-5.41.74-1.64,1.72-3.08,2.94-4.31,1.23-1.23,2.66-2.21,4.31-2.94,1.64-.73,3.38-1.16,5.19-1.28v1.99s-11.46-.3-9.22,12.51c5.41-6.4,11.18.15,8.64,5.38Z"/>
</svg>