<svg xmlns="http://www.w3.org/2000/svg" viewBox="0 0 32 32">
  <path d="M16,24.7c-2.85,0-5.64-.99-7.86-2.77l-.21-.17-.02-.26c-.01-.2-.02-.39-.02-.59,0-3.07,1.4-5.9,3.74-7.55l.33-.23.34.21c2.21,1.4,5.17,1.4,7.38,0l.34-.21.33.23c2.34,1.66,3.74,4.48,3.74,7.55,0,.2,0,.4-.02.59l-.02.26-.21.17c-2.22,1.79-5.01,2.77-7.86,2.77ZM9.1,21.16c1.99,1.53,4.37,2.34,6.9,2.34s4.9-.81,6.9-2.34c0-.08,0-.17,0-.25,0-2.54-1.09-4.89-2.93-6.34-2.42,1.37-5.52,1.37-7.94,0-1.84,1.46-2.93,3.8-2.93,6.34,0,.08,0,.17,0,.25ZM16,13.88c-2.84,0-5.15-2.31-5.15-5.15s2.31-5.15,5.15-5.15,5.15,2.31,5.15,5.15-2.31,5.15-5.15,5.15ZM16,4.78c-2.18,0-3.95,1.77-3.95,3.95s1.77,3.95,3.95,3.95,3.95-1.77,3.95-3.95-1.77-3.95-3.95-3.95ZM30.8,23.18V3.33c0-1.28-1.05-2.31-2.33-2.31H3.53c-1.29,0-2.33,1.04-2.33,2.31v19.85c0,.44.36.8.8.8s.8-.36.8-.8V3.33c0-.39.33-.71.73-.71h24.94c.4,0,.73.32.73.71v19.85c0,.44.36.8.8.8s.8-.36.8-.8ZM30.15,25.18H1.85c-.47,0-.85.38-.85.85v3.31c0,.47.38.85.85.85h28.31c.47,0,.85-.38.85-.85v-3.31c0-.47-.38-.85-.85-.85ZM6.58,28.7c-.5,0-.9-.4-.9-.9s.4-.9.9-.9.9.4.9.9-.4.9-.9.9ZM10.34,28.7c-.5,0-.9-.4-.9-.9s.4-.9.9-.9.9.4.9.9-.4.9-.9.9ZM14.1,28.7c-.5,0-.9-.4-.9-.9s.4-.9.9-.9.9.4.9.9-.4.9-.9.9ZM17.86,28.7c-.5,0-.9-.4-.9-.9s.4-.9.9-.9.9.4.9.9-.4.9-.9.9ZM21.62,28.7c-.5,0-.9-.4-.9-.9s.4-.9.9-.9.9.4.9.9-.4.9-.9.9ZM25.38,28.74c-.52,0-.94-.42-.94-.94s.42-.94.94-.94.94.42.94.94-.42.94-.94.94Z"/>
</svg>