<svg xmlns="http://www.w3.org/2000/svg" id="Layer_1" data-name="Layer 1" viewBox="0 0 948.1 948.1"><defs/><path fill="#bcd9e5" stroke-width="0" d="M867 657V291c0-30-16-58-43-74L507 34a85 85 0 0 0-85 0L105 217a85 85 0 0 0-42 74v366c0 30 16 58 42 74l317 183c27 15 59 15 85 0l317-183c27-16 43-44 43-74Z"/><path d="M443 474a150 150 0 1 1 1-301 150 150 0 0 1-1 301Zm0-270a119 119 0 1 0 1 239 119 119 0 0 0-1-239Z"/><path d="M794 245 498 74a67 67 0 0 0-67 0L135 245a67 67 0 0 0-33 58v348l1 6v4l1 1v1l1 2v2c4 11 11 21 19 28a80 80 0 0 0 2 2l2 1 1 1 1 1a88 88 0 0 0 5 3l296 171a67 67 0 0 0 67 0l296-171a67 67 0 0 0 34-58V303c0-24-13-46-34-58Zm-643 27 296-171a36 36 0 0 1 36 0l296 171c11 6 18 18 18 31v144l-2-1c-88-22-151 4-202 25l-5 3c-34 14-66 32-87 46-72-2-115-13-153-22-24-6-46-12-71-14-29-2-89-1-144 20V303c0-13 7-25 18-31Zm646 276-3-1-3-1h-1l-2-1h-4l-1-1h-3l-2-1h-5l-2-1h-2a244 244 0 0 0-7-1h-5l-2-1h-13l-2-1h-33l-2 1h-16l-2 1h-10l-1 1h-9l-3 1h-5l-2 1h-6l-2 1h-5l-2 1h-4l-2 1h-4l-2 1h-4l-1 1h-4l-1 1h-4l-1 1a301 301 0 0 0-6 1h-1l-2 1h-3l-1 1h-2l-1 1h-3l-2 1h-2l-1 1h-3l-2 1c-46 15-84 30-117 44l-3 1-12 5a2426 2426 0 0 1-71 26l-19 4-1 1a349 349 0 0 1-7 1l-5 1-2 1h-5l-2 1-5 1h-2l-5 1h-3l-4 1h-3l-5 1h-2l-6 1h-2l-5 1h-11l-5 1h-8l-2 1h-9 1l8-1h1l7-1 3-1 5-1h3l6-1 3-1 4-1h4l4-1 3-1 5-1h3l6-2h1l8-2h2l5-2h3l4-2h3l5-2 2-1 5-1 2-1 5-1 2-1 5-2h2l6-3c24-9 50-25 79-44l2-1a1912 1912 0 0 0 41-27c21-13 53-32 87-47l5-2c36-15 75-31 124-31 18 0 37 2 58 7l10 3v69Zm-653 79a393 393 0 0 1-9 0h-2v-90c53-22 115-24 141-22 23 2 43 7 66 13 30 7 66 16 116 21l-2 1-2 2h-1l-2 2h-1l-2 2h-1l-2 1-1 1-2 1-1 1-1 1-2 1h-1l-1 1-2 1-1 1-1 1-1 1h-2l-1 1-1 1-1 1h-2l-1 1-1 1-1 1h-2l-1 1-1 1-1 1h-1l-2 1-1 1h-1l-1 1-1 1h-1l-2 1h-1l-1 1-1 1h-1l-1 1h-1l-2 1-1 1h-1l-1 1h-1l-1 1h-1l-1 1h-1l-1 1h-2l-2 1-3 1-6 2-2 1-4 2h-3a420 420 0 0 1-10 4l-3 1-4 1-3 1-4 1-3 1h-4l-3 1-4 1-4 1a294 294 0 0 1-18 4l-4 1h-3l-4 1-4 1h-4l-3 1-5 1h-3a2897 2897 0 0 1-13 2h-2l-6 1h-1l-40 4h-15l-3 1a1177 1177 0 0 1-14 0h-13l-5 1h-19Zm338 220a36 36 0 0 1-35 0L157 680h3a832 832 0 0 0 12 1h9l2 1h23a243 243 0 0 0 16 1h11a588 588 0 0 0 20 0h1l10-1h12l10-1h2l7-1h3l9-1h1l8-1h2l8-1h1a551 551 0 0 0 18-3h1a483 483 0 0 0 17-3l2-1 8-2h2a427 427 0 0 0 16-4c27-8 54-19 87-32 33-14 71-30 117-44 27-9 69-15 107-17h12l2-1h15l2 1h17a148 148 0 0 1 3 1h9l1 1h4l2 1h4l1 1h3a121 121 0 0 1 3 1h3l2 1h1l1 1h2l1 1h2l1 1h1l1 1h2v64c0 13-7 24-18 31L482 847Z"/></svg>