<?xml version="1.0" encoding="UTF-8"?>
<svg id="Layer_1" data-name="Layer 1" xmlns="http://www.w3.org/2000/svg" viewBox="0 0 948.06 948.06">
  <defs>
    <style>
      .cls-1 {
        fill: #474747;
      }

      .cls-1, .cls-2 {
        stroke-width: 0px;
      }

      .cls-2 {
        fill: #bcd9e5;
      }
    </style>
  </defs>
  <path class="cls-2" d="M866.7,657.04v-366.2c0-30.32-16.17-58.33-42.43-73.49L507.13,34.24c-26.26-15.16-58.6-15.16-84.86,0L105.13,217.34c-26.26,15.16-42.43,43.17-42.43,73.49v366.2c0,30.32,16.17,58.33,42.43,73.49l317.14,183.1c26.26,15.16,58.6,15.16,84.86,0l317.14-183.1c26.26-15.16,42.43-43.17,42.43-73.49Z"/>
  <g>
    <path class="cls-1" d="M443.43,473.7c-82.86,0-150.27-67.41-150.27-150.27s67.41-150.27,150.27-150.27,150.27,67.41,150.27,150.27-67.41,150.27-150.27,150.27ZM443.43,204.38c-65.64,0-119.05,53.4-119.05,119.05s53.4,119.05,119.05,119.05,119.05-53.4,119.05-119.05-53.4-119.05-119.05-119.05Z"/>
    <path class="cls-1" d="M794.46,244.99L498.1,73.89c-20.6-11.89-46.19-11.89-66.8,0L134.95,244.99c-20.6,11.89-33.4,34.06-33.4,57.85v342.2c0,.89.02,1.78.06,2.66,0,.2.02.41.03.61.04.75.09,1.5.15,2.24.01.13.02.27.03.4.17,1.87.41,3.72.73,5.56v.58s.1,0,.1,0c.02.1.04.2.06.3.09.47.18.93.28,1.4.07.32.14.64.21.96.07.3.14.61.21.91.13.55.27,1.09.42,1.64.02.07.04.15.06.22.25.94.52,1.87.82,2.8h0c.12.37.26.74.38,1.1.05.13.09.27.14.4,3.8,11.01,10.34,20.73,18.96,28.32.01.01.02.02.03.03.46.4.93.8,1.4,1.19.24.2.48.4.72.59.4.32.8.65,1.21.96.63.49,1.27.96,1.92,1.43.26.19.53.37.79.55.52.36,1.06.72,1.59,1.07.24.16.49.32.74.48.77.49,1.55.97,2.35,1.43l296.36,171.1c10.3,5.95,21.85,8.92,33.4,8.92s23.1-2.97,33.4-8.92l296.36-171.1c13.52-7.81,23.68-20.04,29.06-34.24,1.54-4.06,2.69-8.28,3.42-12.61.24-1.44.44-2.9.58-4.36.22-2.19.33-4.41.33-6.64v-342.2c0-23.79-12.8-45.95-33.4-57.85ZM150.56,272.03L446.92,100.93c5.49-3.17,11.64-4.75,17.79-4.75s12.3,1.58,17.79,4.75l296.36,171.1c10.97,6.33,17.79,18.14,17.79,30.81v143.86c-.67-.17-1.34-.34-2.02-.51-88.1-22.2-150.92,4.14-201.4,25.31l-5.13,2.15c-34.44,14.39-65.67,32.77-87.28,46.21-71.77-2.23-114.98-12.84-153.2-22.23-23.63-5.8-45.94-11.29-70.97-13.51-29.1-2.59-88.51-.72-143.86,19.64v-200.92c0-12.67,6.82-24.47,17.79-30.81ZM796.63,547.89c-.78-.24-1.56-.46-2.35-.69-.15-.04-.3-.09-.45-.13-1.02-.29-2.05-.57-3.1-.84-.33-.09-.67-.17-1-.25-.72-.18-1.44-.36-2.18-.54-.42-.1-.84-.19-1.26-.29-.66-.15-1.32-.3-1.98-.45-.45-.1-.91-.19-1.37-.29-.65-.14-1.29-.27-1.95-.4-.47-.09-.95-.19-1.42-.28-.65-.12-1.3-.25-1.96-.36-.48-.09-.96-.17-1.44-.26-.67-.12-1.35-.23-2.03-.34-.47-.08-.94-.16-1.41-.23-.73-.11-1.47-.22-2.21-.33-.43-.06-.86-.13-1.29-.19-.94-.13-1.89-.26-2.84-.38-.23-.03-.46-.06-.7-.09-1.17-.15-2.36-.29-3.55-.42-.43-.05-.86-.09-1.29-.14-.78-.08-1.56-.17-2.35-.25-.51-.05-1.02-.1-1.53-.14-.71-.07-1.43-.13-2.15-.2-.54-.05-1.08-.09-1.62-.13-.7-.06-1.4-.11-2.1-.16-.56-.04-1.11-.08-1.67-.12-.7-.05-1.4-.09-2.1-.14-.56-.03-1.12-.07-1.68-.1-.72-.04-1.43-.08-2.15-.12-.55-.03-1.1-.06-1.65-.08-.75-.04-1.51-.07-2.27-.1-.52-.02-1.04-.04-1.56-.06-.94-.03-1.88-.06-2.83-.09-.41-.01-.83-.03-1.24-.04-1.18-.03-2.37-.05-3.56-.07-.53,0-1.06-.01-1.58-.02-.77,0-1.54-.02-2.31-.02-.59,0-1.18,0-1.76,0-.71,0-1.43,0-2.14,0-.61,0-1.22,0-1.83,0-.7,0-1.4.01-2.11.02-.62,0-1.23.02-1.85.03-.7.01-1.39.02-2.09.04-.62.01-1.25.03-1.87.04-.7.02-1.4.04-2.11.06-.61.02-1.23.03-1.84.05-.73.02-1.46.05-2.19.08-.59.02-1.17.04-1.76.07-.87.04-1.74.07-2.61.11-.74.03-1.47.07-2.21.1-.98.05-1.97.1-2.95.15-.59.03-1.18.07-1.77.1-.73.04-1.45.09-2.18.13-.62.04-1.24.08-1.87.12-.7.05-1.39.09-2.08.14-.63.04-1.26.09-1.89.14-.68.05-1.36.1-2.04.15-.64.05-1.27.1-1.91.15-.67.05-1.34.11-2.02.17-.64.05-1.27.11-1.91.16-.68.06-1.36.12-2.03.18-.62.06-1.24.11-1.86.17-.7.07-1.4.14-2.1.21-.59.06-1.19.12-1.78.18-.82.08-1.63.17-2.45.26-.82.09-1.64.18-2.45.27-.88.1-1.76.2-2.64.3-.58.07-1.16.14-1.74.21-.69.08-1.38.16-2.07.25-.61.07-1.21.15-1.81.23-.66.08-1.31.16-1.97.25-.61.08-1.21.16-1.81.24-.65.09-1.3.17-1.95.26-.6.08-1.2.16-1.79.25-.64.09-1.28.18-1.91.27-.6.09-1.2.17-1.79.26-.64.09-1.28.19-1.92.28-.58.09-1.15.17-1.73.26-.68.1-1.34.21-2.02.31-.53.08-1.06.16-1.59.25-.84.13-1.67.27-2.5.41-.58.1-1.17.19-1.75.29-.91.15-1.82.31-2.72.46-.48.08-.96.17-1.45.25-.68.12-1.35.24-2.02.36-.52.09-1.03.19-1.55.28-.63.11-1.25.23-1.87.34-.52.1-1.04.19-1.55.29-.61.12-1.22.23-1.82.35-.51.1-1.02.2-1.53.3-.6.12-1.2.24-1.79.36-.5.1-.99.2-1.48.3-.61.13-1.22.25-1.82.38-.46.1-.92.19-1.38.29-.65.14-1.29.28-1.92.42-.41.09-.82.18-1.22.27-.87.19-1.73.38-2.58.58-.26.06-.51.12-.77.17-.9.21-1.79.41-2.67.62-.36.09-.72.17-1.08.26-.62.15-1.24.3-1.85.45-.4.1-.79.2-1.19.3-.56.14-1.12.28-1.67.42-.4.1-.8.21-1.19.31-.53.14-1.06.28-1.59.42-.39.1-.78.21-1.17.31-.52.14-1.03.28-1.54.42-.37.1-.75.21-1.11.31-.52.15-1.03.29-1.54.44-.34.1-.68.2-1.02.29-.56.16-1.11.33-1.65.49-.27.08-.55.16-.81.24-.81.25-1.6.49-2.38.74-45.61,14.51-83.45,29.87-116.89,43.55-1.08.44-2.15.88-3.22,1.32-3.9,1.6-7.73,3.16-11.5,4.7-3.77,1.54-7.48,3.04-11.13,4.51-1.82.73-3.64,1.46-5.43,2.17-19.76,7.87-37.85,14.56-55.01,19.31-6.19,1.71-12.53,3.3-19.02,4.77-.3.07-.59.14-.89.21-1.68.38-3.38.74-5.09,1.1-.59.13-1.18.26-1.78.38-1.6.33-3.23.65-4.85.97-.71.14-1.4.29-2.12.42-1.56.3-3.15.58-4.73.87-.78.14-1.56.29-2.35.43-1.55.27-3.11.53-4.68.79-.84.14-1.66.29-2.5.42-1.56.25-3.13.49-4.7.72-.86.13-1.72.27-2.58.4-1.58.23-3.18.45-4.78.67-.87.12-1.74.25-2.62.36-1.62.21-3.26.41-4.9.62-.87.11-1.73.22-2.6.33-1.68.2-3.37.38-5.06.57-.85.09-1.69.19-2.54.28-1.71.18-3.44.34-5.17.51-.85.08-1.68.17-2.53.25-1.78.16-3.57.31-5.37.46-.81.07-1.62.14-2.44.21-1.86.15-3.75.28-5.63.41-.76.05-1.52.12-2.28.17-1.93.13-3.87.24-5.82.36-.73.04-1.46.09-2.19.13-1.95.11-3.92.2-5.9.29-.71.03-1.42.07-2.13.1.11-.01.22-.03.33-.04,2.79-.36,5.57-.73,8.33-1.11.4-.06.79-.12,1.18-.17,2.35-.33,4.7-.67,7.03-1.02.89-.14,1.78-.28,2.67-.42,1.82-.28,3.64-.57,5.45-.86,1.01-.16,2.01-.33,3.01-.5,1.68-.28,3.36-.57,5.03-.86,1.03-.18,2.06-.37,3.09-.55,1.63-.3,3.26-.6,4.87-.9,1.02-.19,2.03-.39,3.05-.58,1.64-.32,3.27-.64,4.89-.97.96-.19,1.92-.39,2.88-.59,1.73-.36,3.44-.73,5.15-1.1.83-.18,1.67-.36,2.49-.54,2.13-.47,4.24-.95,6.35-1.44.39-.09.78-.18,1.17-.27,2.51-.59,4.99-1.19,7.46-1.81.59-.15,1.18-.3,1.77-.45,1.85-.47,3.69-.94,5.52-1.43.86-.23,1.7-.46,2.56-.69,1.55-.42,3.09-.84,4.63-1.27.93-.26,1.86-.53,2.79-.79,1.44-.41,2.88-.83,4.31-1.26.95-.28,1.89-.57,2.84-.85,1.4-.42,2.79-.86,4.18-1.29.93-.29,1.86-.58,2.79-.88,1.41-.45,2.81-.91,4.21-1.37.87-.29,1.75-.57,2.62-.87,1.52-.51,3.02-1.03,4.52-1.56.72-.25,1.46-.5,2.18-.76,2.21-.78,4.4-1.58,6.57-2.39,23.75-8.88,49.5-25.33,78.94-44.62.53-.34,1.05-.69,1.58-1.04,1.59-1.04,3.19-2.09,4.8-3.15,11.78-7.73,23.96-15.72,36.66-23.69,20.71-13,52.24-31.94,86.75-46.37l5.17-2.17c35.57-14.92,74.61-31.3,123.58-31.3,17.93,0,37.2,2.2,58.11,7.47h0c3.29.83,6.51,1.67,9.65,2.51v68.92ZM144.49,626.6c-1.61,0-3.23-.01-4.85-.03-1.48-.01-2.96-.02-4.44-.04-.8,0-1.61-.02-2.41-.03v-89.18c53.11-22.54,114.73-24.45,141.1-22.1,22.66,2.01,42.87,6.98,66.28,12.73,29.89,7.34,65.44,16.08,116.21,20.56-.69.45-1.37.9-2.05,1.35-.15.1-.31.2-.46.3-.68.45-1.36.89-2.04,1.34-.26.17-.52.34-.77.51-.84.55-1.68,1.1-2.51,1.64-.07.05-.15.1-.22.15-.91.6-1.82,1.19-2.72,1.78-.26.17-.52.34-.78.51-.63.41-1.26.82-1.89,1.23-.41.26-.81.52-1.21.79-.48.31-.96.62-1.43.93-.43.28-.85.55-1.28.82-.45.29-.91.59-1.36.88-.43.27-.85.55-1.28.82-.44.28-.89.57-1.33.85-.44.28-.87.56-1.31.84-.43.27-.85.54-1.27.81-.45.28-.89.57-1.34.85-.4.26-.81.51-1.21.77-.45.28-.89.56-1.34.84-.41.25-.81.51-1.22.76-.43.27-.87.54-1.3.81-.41.25-.81.51-1.22.76-.43.27-.86.53-1.29.8-.4.25-.8.49-1.2.74-.43.26-.85.52-1.28.78-.4.24-.8.49-1.2.73-.42.26-.85.51-1.27.77-.39.24-.78.47-1.17.7-.42.25-.84.5-1.26.75-.39.23-.78.46-1.16.69-.42.25-.83.49-1.24.73-.39.23-.78.45-1.16.68-.41.24-.81.47-1.22.71-.39.22-.77.44-1.15.66-.4.23-.81.46-1.21.69-.39.22-.77.44-1.15.65-.4.22-.79.44-1.18.66-.38.21-.77.43-1.15.64-.39.22-.78.43-1.17.64-.38.21-.76.41-1.14.62-.39.21-.77.42-1.16.62-.38.2-.75.4-1.13.6-.38.2-.76.4-1.14.6-.38.2-.75.39-1.13.59-.37.19-.74.38-1.11.57-.38.19-.76.38-1.13.57-.36.18-.73.37-1.09.54-.38.19-.75.37-1.13.55-.36.17-.71.35-1.07.52-.38.18-.76.36-1.13.54-.35.16-.7.33-1.04.49-.39.18-.77.35-1.15.53-.33.15-.67.31-1,.45-.39.18-.78.35-1.17.52-.32.14-.64.28-.95.42-.41.18-.81.34-1.21.51-.3.12-.59.25-.89.37-.46.19-.91.37-1.37.55-.24.09-.47.19-.71.29-.69.27-1.37.54-2.06.79-2.07.78-4.17,1.54-6.28,2.29-.73.26-1.48.51-2.22.77-1.39.48-2.77.97-4.17,1.44-.9.3-1.81.59-2.71.89-1.26.42-2.52.83-3.79,1.24-.98.31-1.97.62-2.96.92-1.21.38-2.43.76-3.65,1.13-1.05.32-2.1.62-3.16.93-1.18.35-2.37.7-3.56,1.04-1.1.31-2.21.62-3.31.93-1.17.32-2.34.65-3.52.97-1.14.31-2.29.61-3.44.91-1.16.3-2.33.61-3.5.91-1.18.3-2.38.6-3.57.89-1.15.28-2.31.57-3.47.84-1.23.29-2.46.58-3.7.87-1.14.27-2.29.53-3.45.79-1.27.29-2.55.57-3.83.84-1.13.25-2.27.49-3.41.73-1.32.28-2.64.55-3.97.82-1.12.23-2.24.45-3.37.67-1.37.27-2.74.54-4.12.8-1.1.21-2.21.41-3.32.62-1.42.26-2.84.52-4.28.77-1.07.19-2.15.37-3.23.56-1.48.25-2.97.51-4.46.75-1.04.17-2.08.34-3.13.5-1.55.25-3.11.49-4.67.73-.98.15-1.98.29-2.96.44-1.64.24-3.29.48-4.95.72-.9.13-1.8.25-2.71.37-1.76.24-3.53.48-5.3.71-.76.1-1.53.19-2.3.29-1.93.24-3.87.48-5.82.71-.5.06-1.01.11-1.52.17-12.81,1.47-26.01,2.66-39.59,3.55-.05,0-.09,0-.14,0-2.38.16-4.77.3-7.17.43-.51.03-1.02.06-1.54.09-2.17.12-4.36.23-6.55.33-.76.04-1.52.08-2.29.11-2.05.09-4.11.18-6.18.26-.92.04-1.84.08-2.77.11-1.96.07-3.93.13-5.9.19-1.06.03-2.11.07-3.17.1-1.88.05-3.77.09-5.66.14-1.18.03-2.36.05-3.55.07-1.8.03-3.6.06-5.41.08-1.31.02-2.62.03-3.93.05-1.71.02-3.43.03-5.15.04-1.45,0-2.9.01-4.36.01-1.6,0-3.21,0-4.82,0ZM482.49,846.94c-5.49,3.17-11.64,4.75-17.79,4.75-6.15,0-12.3-1.58-17.79-4.75l-289.42-167.1c.69.05,1.37.1,2.06.15,1.6.12,3.2.24,4.79.35,1.08.08,2.15.15,3.23.22,1.63.11,3.26.22,4.88.32,1,.06,2.01.13,3.01.19,1.82.11,3.62.21,5.43.31.79.04,1.58.09,2.37.13,2.59.14,5.18.26,7.75.38.25.01.51.02.76.03,2.32.1,4.62.2,6.92.28.8.03,1.6.05,2.4.08,1.76.06,3.51.12,5.26.17.9.03,1.8.05,2.7.07,1.66.04,3.32.08,4.97.12.89.02,1.79.04,2.68.05,1.71.03,3.41.05,5.11.07.79,0,1.59.02,2.38.03,2.01.02,4.02.03,6.02.03.46,0,.92,0,1.38,0,.15,0,.3,0,.46,0,.42,0,.84,0,1.26,0,2.82,0,5.63-.02,8.42-.06.97-.01,1.93-.02,2.89-.04,2.91-.04,5.81-.1,8.69-.18.37,0,.75-.02,1.13-.03,3.19-.09,6.35-.2,9.5-.33.9-.04,1.81-.08,2.71-.12,2.54-.11,5.07-.23,7.59-.37.7-.04,1.41-.07,2.12-.11,3.09-.18,6.15-.37,9.19-.58.76-.05,1.52-.11,2.28-.17,2.44-.18,4.88-.37,7.29-.58.81-.07,1.63-.14,2.44-.21,3-.26,5.99-.55,8.95-.85.5-.05.99-.11,1.49-.16,2.53-.27,5.05-.55,7.55-.84.83-.1,1.66-.2,2.49-.3,2.77-.34,5.53-.69,8.26-1.06.18-.02.36-.05.53-.07,2.88-.39,5.73-.82,8.57-1.25.79-.12,1.58-.24,2.36-.37,2.34-.37,4.66-.75,6.96-1.14.56-.1,1.12-.19,1.68-.28,2.77-.48,5.51-.98,8.23-1.5.68-.13,1.35-.26,2.03-.4,2.19-.43,4.37-.87,6.53-1.32.68-.14,1.37-.28,2.05-.43,2.67-.57,5.32-1.16,7.94-1.77.47-.11.93-.22,1.4-.33,2.22-.52,4.43-1.06,6.62-1.61.71-.18,1.42-.36,2.12-.54,2.59-.67,5.18-1.35,7.72-2.05,26.74-7.4,54.46-18.75,86.56-31.88,33.69-13.79,71.87-29.41,117.76-44.01,26.49-8.43,68.52-15.08,107.07-16.95,1.35-.07,2.69-.12,4.03-.18.46-.02.91-.03,1.36-.05.88-.03,1.75-.06,2.62-.09.53-.02,1.05-.03,1.57-.04.79-.02,1.58-.04,2.37-.06.55-.01,1.1-.02,1.64-.03.75-.01,1.5-.03,2.24-.04.56,0,1.12-.01,1.67-.02.72,0,1.44-.01,2.16-.02.56,0,1.12,0,1.68,0,.71,0,1.41,0,2.11,0,.55,0,1.1,0,1.64.01.7,0,1.4.02,2.1.03.53,0,1.07.02,1.6.03.7.01,1.4.03,2.1.05.51.01,1.02.02,1.53.04.72.02,1.44.05,2.15.07.47.02.95.03,1.41.05.79.03,1.57.07,2.35.1.38.02.77.03,1.15.05,1.15.06,2.3.12,3.43.19.12,0,.23.02.34.02,1.02.06,2.02.13,3.02.2.4.03.8.06,1.2.09.7.05,1.4.11,2.1.17.45.04.9.08,1.35.12.63.06,1.26.11,1.89.17.47.05.92.09,1.39.14.6.06,1.19.12,1.78.19.47.05.94.11,1.4.16.57.07,1.14.13,1.7.2.46.06.92.12,1.38.18.55.07,1.1.14,1.64.22.46.06.91.13,1.36.19.53.08,1.06.16,1.59.24.45.07.89.14,1.33.21.53.08,1.04.17,1.56.26.43.07.85.14,1.27.22.52.09,1.04.19,1.56.28.4.07.81.15,1.21.22.54.1,1.07.21,1.6.32.36.07.73.14,1.08.22.75.16,1.48.32,2.21.49.38.09.76.18,1.14.27.57.14,1.14.27,1.7.41.36.09.72.19,1.08.28.45.12.91.23,1.35.36.37.1.74.21,1.1.31.42.12.83.24,1.24.36.37.11.73.22,1.09.33.39.12.78.24,1.16.37.36.12.71.23,1.06.35.37.13.74.25,1.1.38.34.12.69.24,1.02.37.36.13.71.26,1.06.4.33.13.66.25.98.38.34.14.68.28,1.02.42.31.13.62.26.92.39.1.05.2.09.31.14v63.96c0,12.67-6.82,24.47-17.79,30.81l-296.36,171.1Z"/>
  </g>
</svg>